PathFileType	4	(X/Y/Z)	C:\Users\WrightLab\Desktop\Jo\P1.2Trial33.trc
DataRate	CameraRate	NumFrames	NumMarkers	Units	OrigDataRate	OrigDataStartFrame	OrigNumFrames
100.00	100.00	       69	19	mm	100.00	1	       766
Frame#	Time	Headset_Front			Headset_Back			Headset_Left			Headset_Right			Left_Shoulder			Right_Shoulder			Sternum			C7			Left Elbow			Right Elbow			Left Wrist			Right Wrist			Left ASIS			Right ASIS			S2			Left Knee			Right Knee			Left Ankle			Right Ankle			
		X1	Y1	Z1	X2	Y2	Z2	X3	Y3	Z3	X4	Y4	Z4	X5	Y5	Z5	X6	Y6	Z6	X7	Y7	Z7	X8	Y8	Z8	X9	Y9	Z9	X10	Y10	Z10	X11	Y11	Z11	X12	Y12	Z12	X13	Y13	Z13	X14	Y14	Z14	X15	Y15	Z15	X16	Y16	Z16	X17	Y17	Z17	X18	Y18	Z18	X19	Y19	Z19	

1	0.000																												-284.47025	1005.26215	1683.71924				-334.11917	835.49127	1471.54053																						
2	0.010																												-284.27737	1003.44775	1678.75732				-334.91797	832.56384	1467.36877																						
3	0.020																												-283.46933	1001.80273	1672.70996				-336.08682	831.11383	1462.74927																						
4	0.030																												-283.99854	1000.96680	1665.90662				-337.16736	828.86334	1458.96130																						
5	0.040																												-283.41406	1000.10883	1662.58435				-337.32047	827.72931	1455.03125																						
6	0.050																												-283.11917	998.53680	1657.70313				-338.05862	825.71814	1450.81787																						
7	0.060																												-282.69296	998.26501	1653.66040				-338.25049	824.43024	1446.97314																						
8	0.070																												-281.93225	997.30090	1649.78979				-338.43103	822.83844	1443.64709																						
9	0.080																												-281.85889	996.42572	1644.36108				-338.57574	822.33740	1439.58032																						
10	0.090																												-281.61496	996.07947	1640.27209				-338.52322	821.03375	1435.28320																						
11	0.100																												-281.17725	994.73071	1634.75488				-338.16861	820.09717	1431.89966																						
12	0.110																												-280.95300	994.26202	1631.28699				-338.54810	819.09845	1427.64355																						
13	0.120																												-280.68582	993.08722	1626.42957				-338.04965	817.92090	1423.96326																						
14	0.130																												-280.29318	992.88568	1623.94141				-338.02124	817.91150	1420.35107																						
15	0.140																												-279.99408	992.09460	1620.53577				-337.77869	816.47717	1416.80469																						
16	0.150																												-279.90619	991.03638	1614.86267				-337.71951	816.12329	1412.56519																						
17	0.160																												-279.37180	990.84351	1613.52429				-337.16437	815.38074	1409.31653																						
18	0.170																												-279.60623	990.03467	1609.64380				-337.11652	814.33264	1405.58813																						
19	0.180																												-279.67441	989.62885	1604.01917				-337.00790	814.21936	1402.85413																						
20	0.190																												-279.83063	988.99182	1600.55737				-336.63324	813.74554	1398.96387																						
21	0.200																												-279.66730	988.62006	1597.37622				-336.44534	812.66876	1395.93066																						
22	0.210																												-279.44250	988.29797	1594.09229				-336.55429	812.21460	1393.30151																						
23	0.220																												-279.71176	987.47205	1591.09729				-336.63782	811.70526	1390.56348																						
24	0.230																												-279.22852	987.49530	1588.08606				-337.09662	810.97278	1387.05908																						
25	0.240																												-278.91409	987.37256	1584.91907				-336.52527	811.00580	1383.76782																						
26	0.250																												-278.44455	987.40710	1583.03625				-335.98212	810.88885	1381.74817													-429.18625	456.78183	1710.45056							
27	0.260																												-278.78192	986.97888	1579.74768				-335.69604	810.63104	1378.94519													-428.87634	456.57050	1709.67969							
28	0.270																												-277.84601	986.95605	1576.81482				-335.63080	809.84052	1376.14795													-429.34518	456.57462	1708.31677							
29	0.280																												-277.21704	987.07831	1573.87036				-334.81381	810.42767	1373.83435													-430.21213	456.88754	1706.03137							
30	0.290																												-277.30283	987.03351	1570.72437				-334.04465	809.85980	1371.36780													-429.49164	456.92831	1703.93921							
31	0.300																												-276.75510	987.16974	1568.01733				-333.45551	810.02216	1368.55396													-429.55316	456.66412	1703.95496							
32	0.310																												-276.30325	986.99341	1565.06104				-333.30997	809.54413	1365.38049													-429.23135	456.79327	1703.26074							
33	0.320																												-275.40649	987.47717	1563.03491				-332.28656	809.21979	1363.91541													-429.33316	456.27585	1703.19214							
34	0.330																												-275.48734	986.65735	1560.21008				-331.32462	809.32452	1361.54749													-429.32510	455.44843	1701.16882							
35	0.340																												-274.80179	986.77728	1557.45007				-330.69952	809.40308	1358.86414													-429.25314	455.25595	1701.18884							
36	0.350																												-273.68341	986.96552	1555.54614				-330.54327	809.88422	1356.55298													-428.38995	453.88123	1701.46362							
37	0.360																												-273.11960	986.79755	1553.50232				-329.77243	809.15979	1353.90308													-427.99826	453.97287	1700.72986							
38	0.370																												-272.42957	987.36078	1551.24573				-328.93631	809.42102	1351.37219													-427.91235	453.82816	1700.74719							
39	0.380																												-272.25903	987.12085	1548.87646				-328.54919	809.16522	1348.96619													-427.68237	453.47220	1700.62329							
40	0.390																												-271.85806	986.95721	1546.17322				-328.53641	809.30261	1346.61707													-427.13760	453.57227	1700.01538							
41	0.400																												-271.36298	986.78601	1544.88989				-327.72644	809.82745	1344.09424													-426.80322	453.38336	1700.05408							
42	0.410																												-270.60767	986.79248	1542.61536				-327.05017	809.71844	1343.07141													-426.22513	453.55447	1699.72180							
43	0.420																												-270.05759	986.76544	1540.51172				-326.43143	810.03369	1340.63989													-424.70309	453.88043	1696.63464							
44	0.430																												-269.65561	987.23621	1538.73718				-325.77679	810.00244	1339.29065													-424.06070	454.09665	1696.26038							
45	0.440																												-269.15698	987.16675	1537.53760				-325.45813	809.55109	1337.65552													-424.00012	453.49493	1695.20117							
46	0.450																												-268.82202	987.27148	1536.56738				-324.70245	808.91931	1336.32068													-422.45544	452.58356	1694.71814							
47	0.460																												-268.76703	987.28033	1534.30676				-324.30829	808.98932	1334.57092													-421.98303	452.44290	1694.07153							
48	0.470																												-268.55606	987.26428	1532.76160				-323.88031	809.11969	1333.02759													-421.45981	452.30621	1693.42810							
49	0.480																												-268.16681	986.93842	1531.44177				-323.50110	809.09686	1332.34399													-420.86032	452.44580	1692.70630							
50	0.490																												-267.61862	987.13617	1530.14807				-323.39960	809.00208	1330.07227													-420.62073	452.29660	1692.73450							
51	0.500																												-267.52493	986.91730	1529.23560				-323.10461	808.70660	1329.51758													-420.09872	452.53055	1692.04822							
52	0.510																												-267.75644	986.66028	1527.74365				-322.39862	808.63684	1328.82727													-419.54678	452.90518	1691.65527							
53	0.520																												-267.79459	986.91174	1526.78809				-321.73312	808.68896	1327.47290													-418.88138	452.79660	1690.09937							
54	0.530																												-267.10938	986.79333	1525.61853				-321.46603	809.02545	1326.44604													-417.95911	453.13263	1688.12524							
55	0.540																												-267.06412	987.34247	1524.73914				-321.41220	808.69104	1325.89917													-417.73703	452.98923	1688.15149							
56	0.550																												-266.78372	987.23901	1523.61365				-321.05188	808.58307	1324.94263													-417.20383	453.14304	1687.47229							
57	0.560																												-266.01114	987.34802	1522.40942				-321.06308	808.69513	1323.26843													-416.94604	452.72266	1685.66357							
58	0.570																												-265.56668	987.55188	1521.66528				-320.67621	808.80957	1322.38135													-416.39209	452.63528	1684.33020							
59	0.580																												-264.97278	987.72388	1521.08594				-320.57883	809.03479	1322.05042													-416.00534	451.77835	1684.63440							
60	0.590																												-264.64722	987.82202	1520.70923				-319.90558	809.37946	1321.22644													-415.60663	451.60773	1683.75586							
61	0.600																												-264.07986	988.17706	1519.73083				-319.61829	809.33252	1320.16333													-415.61096	451.21811	1683.61731							
62	0.610																												-264.08374	988.07343	1518.96704				-319.07587	809.67877	1319.07739													-415.82153	451.89178	1681.55994							
63	0.620																												-263.50076	988.27155	1518.03589				-318.90781	809.78290	1318.83545													-416.18036	452.19473	1679.53210							
64	0.630																												-262.97794	988.63281	1517.29016				-318.56125	809.99847	1318.59937													-416.17813	452.04739	1678.17065							
65	0.640																												-261.92630	988.30286	1516.31726				-317.87402	810.19397	1317.32837													-416.23038	451.98209	1678.17175							
66	0.650																												-261.52893	988.43829	1515.51965				-317.74188	810.24164	1316.23572													-416.01822	451.87210	1677.27747							
67	0.660																												-260.81836	988.63135	1514.75085				-317.52411	810.33325	1315.73645													-415.95184	451.76245	1677.28992							
68	0.670																												-260.30627	988.93158	1513.93262				-317.01321	810.32916	1315.23975													-415.96970	451.40076	1677.14832							
69	0.680																												-259.57346	988.86053	1513.17529				-316.67926	810.25830	1314.64661													-415.88486	451.24136	1677.16565							
